Coordinates
version=1
nRows=14
nColumns=40
inDegrees=yes

Units are S.I. units (second, meters, Newtons, ...)
Angles are in degrees.

endheader
time	pelvis_tilt	pelvis_list	pelvis_rotation	pelvis_tx	pelvis_ty	pelvis_tz	hip_flexion_r	hip_adduction_r	hip_rotation_r	knee_angle_r	knee_angle_r_beta	ankle_angle_r	subtalar_angle_r	mtp_angle_r	hip_flexion_l	hip_adduction_l	hip_rotation_l	knee_angle_l	knee_angle_l_beta	ankle_angle_l	subtalar_angle_l	mtp_angle_l	lumbar_extension	lumbar_bending	lumbar_rotation	arm_flex_r	arm_add_r	arm_rot_r	elbow_flex_r	pro_sup_r	wrist_flex_r	wrist_dev_r	arm_flex_l	arm_add_l	arm_rot_l	elbow_flex_l	pro_sup_l	wrist_flex_l	wrist_dev_l
     55.09250000	     -3.95332084	     -4.35412631	      2.90246936	      0.80447779	      0.92206211	      0.43645141	      1.19619737	     -1.89542615	    -15.26214274	     25.28667756	     25.28667756	     16.89989716	     -2.75310629	     -4.79271207	     25.73152936	     -5.04157184	     -1.38290757	     27.33625281	     27.33625281	      8.21828122	    -14.90458033	      5.15750572	     -7.36397484	      4.84245902	      3.96324249	     34.67000086	    -15.83118423	     -2.20577734	     86.09247735	     44.59470722	      0.00000000	      0.00000000	     -1.56067272	     -8.29321947	     -0.20031104	     34.05731089	     45.92655842	      0.00000000	      0.00000000
     55.10571429	     -4.04807304	     -4.30954998	      2.61501429	      0.80447667	      0.92301919	      0.43321642	      2.43771445	     -2.69738790	    -14.91286991	     28.10368465	     28.10368465	     15.73825427	     -3.47721615	     -6.45693216	     25.17615586	     -4.82395462	     -1.51815522	     27.13018470	     27.13018470	      8.61121155	    -15.12486547	      5.60784977	     -7.29371245	      4.87339113	      3.93172527	     33.35808473	    -15.70862290	     -1.95767696	     83.82788430	     44.66413620	      0.00000000	      0.00000000	     -0.48807766	     -8.45563646	     -0.61991884	     34.65794377	     45.99358509	      0.00000000	      0.00000000
     55.11892857	     -4.07704272	     -4.24832884	      2.33912952	      0.80446298	      0.92400222	      0.42998962	      3.74423990	     -3.51748166	    -14.45602990	     31.09318227	     31.09318227	     14.20918103	     -4.44962276	     -8.40574716	     24.52780016	     -4.60190586	     -1.71440486	     26.88529734	     26.88529734	      9.02960602	    -15.21246759	      5.95675386	     -7.32342798	      4.90357785	      3.85030228	     31.98885379	    -15.50150880	     -1.76050155	     81.55501673	     44.73475129	      0.00000000	      0.00000000	      0.53333414	     -8.67590880	     -1.04084637	     35.41853022	     46.05897546	      0.00000000	      0.00000000
     55.13214286	     -3.99195172	     -4.25604705	      2.12722082	      0.80444650	      0.92508052	      0.42685800	      4.79784885	     -4.12424556	    -13.84745214	     33.48885495	     33.48885495	     10.15421410	     -7.28249933	    -16.31218464	     23.81383204	     -4.43105224	     -1.77233724	     26.74622490	     26.74622490	      9.77809206	    -15.24251753	      7.09842612	     -7.38155043	      4.96529372	      2.77646108	     31.80709612	    -14.07181177	     -1.50703235	     76.50093409	     44.92697079	      0.00000000	      0.00000000	      0.73285481	     -8.99537908	     -2.62756027	     37.25423368	     46.23679716	      0.00000000	      0.00000000
     55.14535714	     -4.06064133	     -4.19577618	      1.87970385	      0.80423844	      0.92571705	      0.42373397	      6.54944859	     -4.98312865	    -13.33838215	     37.05980609	     37.05980609	      8.38680677	     -8.45229626	    -17.23941125	     23.23271200	     -4.24357793	     -2.10269418	     26.50065814	     26.50065814	     10.10584410	    -15.15809203	      6.99075709	     -7.38301165	      5.00306030	      2.95725388	     29.89845525	    -14.35075813	     -1.25486578	     75.01263473	     44.96567536	      0.00000000	      0.00000000	      1.91618273	     -9.25387921	     -2.97460052	     38.18800549	     46.29204493	      0.00000000	      0.00000000
     55.15857143	     -3.96445785	     -4.10411710	      1.67015009	      0.80395884	      0.92645160	      0.42062769	      8.23202214	     -5.83248138	    -12.72935978	     40.69793637	     40.69793637	      6.41094752	     -9.70629126	    -17.80318870	     22.49660050	     -4.01210349	     -2.37414355	     26.28641818	     26.28641818	     10.46062240	    -15.06201330	      6.86359125	     -7.59658290	      4.99342244	      2.97851852	     28.09302037	    -14.33496500	     -1.16938113	     73.35998468	     45.01316703	      0.00000000	      0.00000000	      3.12202137	     -9.63485628	     -3.21005679	     39.08592248	     46.33615734	      0.00000000	      0.00000000
     55.17178571	     -3.90960525	     -4.24463363	      1.47083211	      0.80349739	      0.92704109	      0.41789067	     10.00001888	     -6.17078501	    -11.81790812	     44.08436636	     44.08436636	      3.40194110	    -12.45942354	    -19.65382356	     21.86447061	     -4.04963921	     -2.58784630	     26.11729214	     26.11729214	     10.78855567	    -14.99389541	      6.56271806	     -7.67416657	      5.17685459	      2.79480234	     27.08972742	    -13.65743538	     -2.00666409	     68.90375120	     45.19981662	      0.00000000	      0.00000000	      3.74659640	    -10.09100349	     -3.68460673	     41.28206558	     46.39446825	      0.00000000	      0.00000000
     55.18500000	     -3.91758802	     -4.04372670	      1.28104835	      0.80299249	      0.92737247	      0.41499174	     11.99202290	     -7.06168458	    -11.18775082	     47.75907446	     47.75907446	      1.26175141	    -13.54074605	    -19.38068881	     21.25591601	     -3.72443004	     -2.94668968	     25.89663206	     25.89663206	     11.12917114	    -14.78384787	      6.37612879	     -7.75606297	      5.05223164	      2.72401750	     25.14753102	    -13.62754419	     -1.85545207	     67.34510897	     45.23978168	      0.00000000	      0.00000000	      4.92800722	    -10.56594358	     -3.91571549	     42.17652757	     46.43730588	      0.00000000	      0.00000000
     55.19821429	     -3.90772427	     -4.10870913	      1.10179407	      0.80222903	      0.92766197	      0.41250189	     14.05728100	     -7.39903111	    -10.34378403	     51.35034261	     51.35034261	     -0.37206244	    -14.80610072	    -16.91339929	     20.71541853	     -3.72700745	     -3.28666822	     25.75769250	     25.75769250	     11.41797710	    -14.47876252	      5.73194865	     -7.85308423	      5.15351583	      2.35386690	     24.29831598	    -12.86956880	     -2.55023601	     62.48929576	     45.43090769	      0.00000000	      0.00000000	      5.39107316	    -11.19075445	     -4.34132180	     44.68982726	     46.49215201	      0.00000000	      0.00000000
     55.21142857	     -3.84819547	     -4.12218800	      0.92271508	      0.80145266	      0.92794617	      0.41011134	     16.01715117	     -7.74159009	     -9.61302272	     54.64494308	     54.64494308	     -1.95367134	    -15.88824604	    -14.68412127	     20.13685947	     -3.68753204	     -3.66609386	     25.66271610	     25.66271610	     11.81302614	    -14.14341500	      5.33126720	     -8.04420245	      5.19981083	      2.61594659	     22.45687837	    -13.04328585	     -2.63454741	     59.79730139	     45.51754505	      0.00000000	      0.00000000	      6.65277315	    -11.55679920	     -4.66356344	     46.15339501	     46.54639704	      0.00000000	      0.00000000
     55.22464286	     -3.81321276	     -4.09631682	      0.75708352	      0.80059436	      0.92816415	      0.40792462	     18.07936367	     -8.03979345	     -8.90696779	     57.90530368	     57.90530368	     -2.20753404	    -16.03992182	     -9.55803834	     19.55102666	     -3.63447019	     -4.13408852	     25.48465171	     25.48465171	     12.13790834	    -13.66277738	      4.67702803	     -8.16117634	      5.20012256	      2.17404893	     21.45112965	    -12.36147513	     -3.16785858	     55.66457524	     45.66900627	      0.00000000	      0.00000000	      7.31843060	    -12.27521301	     -5.01044833	     48.00892280	     46.59764468	      0.00000000	      0.00000000
     55.23785714	     -3.74054898	     -4.11757969	      0.59406148	      0.79974138	      0.92849313	      0.40586567	     19.85816173	     -8.21092515	     -8.35649832	     60.44232777	     60.44232777	     -3.24511799	    -16.81351410	     -7.70892223	     18.93858319	     -3.61648606	     -4.50746504	     25.33611776	     25.33611776	     12.54238515	    -13.26476028	      4.33561046	     -8.37412063	      5.24381433	      2.57130493	     19.40410885	    -12.68179939	     -3.14929920	     53.22935592	     45.73998012	      0.00000000	      0.00000000	      8.73611902	    -12.55891335	     -5.33780069	     49.38571411	     46.65535403	      0.00000000	      0.00000000
     55.25107143	     -3.67955164	     -4.01564040	      0.45693011	      0.79886294	      0.92883731	      0.40389959	     21.54794603	     -8.48899424	     -7.92830118	     62.57369683	     62.57369683	     -4.10093689	    -17.44970679	     -6.74144984	     18.28180689	     -3.45082911	     -4.89996780	     25.07279901	     25.07279901	     12.88159539	    -12.93179905	      4.13371974	     -8.57250221	      5.17961630	      2.45209082	     17.41936950	    -12.61209845	     -3.06090487	     51.56607471	     45.78352211	      0.00000000	      0.00000000	      9.93650751	    -13.12314376	     -5.60345686	     50.26827302	     46.70075831	      0.00000000	      0.00000000
     55.26428571	     -3.62217417	     -4.15037171	      0.24969126	      0.79791598	      0.92929181	      0.40244344	     23.32626615	     -8.29126687	     -7.45814292	     64.61782078	     64.61782078	     -2.69447670	    -17.05619969	     -0.20265445	     17.64031517	     -3.65414498	     -5.50398542	     24.83072560	     24.83072560	     13.18875588	    -12.13517313	      3.29150090	     -8.71534902	      5.27522617	      2.14639719	     17.13913924	    -12.00117212	     -3.60178729	     45.38871765	     46.00841355	      0.00000000	      0.00000000	     10.45176485	    -13.78111796	     -6.05394140	     52.54502499	     46.77071088	      0.00000000	      0.00000000
